<svg width="1100" height="1100" viewBox="0 0 1100 1100" fill="none" xmlns="http://www.w3.org/2000/svg">
<path d="M368.543 24.5498C380.554 24.2805 396.907 24.9563 410.373 24.9658H410.387L517.319 24.9824H660.415H660.416C668.625 24.983 683.637 24.7267 701.101 24.7891C713.986 24.8351 725.402 25.0813 732.746 25.5527C734.299 27.0243 736.071 28.726 737.927 30.5244C740.922 33.4272 743.763 36.2128 746.13 38.5391L751.483 43.7988L800.818 91.8467L886.184 175.51L886.198 175.524C889.124 178.387 902.852 191.608 916.205 204.827C922.858 211.413 929.187 217.772 933.797 222.597C934.256 223.077 934.687 223.533 935.094 223.964C935.268 261.64 935.055 299.682 935.036 337.6V337.604L934.965 577.372V577.379C934.965 611.609 936.306 654.73 935.166 687.829C933.27 689.826 930.797 692.327 927.792 695.251C921.995 700.892 917.906 704.644 913.538 708.811L911.645 710.627C895.177 726.518 878.841 742.54 862.648 758.696L627.977 989.541L627.867 989.648L627.759 989.758C607.838 1009.85 587.744 1029.78 567.48 1049.55L567.446 1049.58L567.413 1049.61C562.889 1054.06 557.23 1059.85 550.586 1066.29L261.414 783.851H261.415C237.778 760.653 214.263 737.324 190.871 713.882L190.811 713.821L189.026 712.064C187.124 710.208 184.903 708.082 182.673 705.941C179.604 702.996 176.341 699.854 173.198 696.741C170.033 693.605 167.174 690.678 164.9 688.177C164.862 688.135 164.825 688.093 164.788 688.052C164.298 673.417 164.58 657.196 164.608 641.592L165.246 540.776V540.759C165.83 436.883 167.072 328.255 164.883 223.676C173.235 216.344 182.22 207.424 190.419 199.082C202.148 187.147 212.51 176.152 220.622 168.181L222.214 166.627C257.785 132.191 293.984 97.4347 329.516 62.6436L329.517 62.6416C331.652 60.55 335.325 56.8607 339.463 52.7227C343.69 48.4949 348.589 43.6119 353.435 38.8682C358.309 34.0966 362.987 29.6066 366.797 26.126C367.444 25.5351 368.024 25.0116 368.543 24.5498Z" fill="black" stroke="white" stroke-width="49"/>
<path d="M386.837 81.2502L712.605 81.0771L802.406 172.738C820.643 191.399 847.108 217.464 863.173 237.253C815.407 238.819 766.121 237.155 718.281 237.096C690.071 237.061 655.8 234.923 628.092 238.217C626.269 306.824 627.971 381.093 628.156 450.029C628.869 594.874 628.813 739.727 627.985 884.567C627.984 885.957 627.965 887.327 627.814 888.707C626.785 898.087 561.653 957.937 549.806 967.547C525.54 945.227 495.212 916.217 473.042 892.177C470.73 820.287 472.312 742.857 472.47 670.817L472.566 238.237L236.504 237.542C245.023 225.285 272.307 198.924 283.744 187.101C317.866 151.826 354.071 117.779 386.837 81.2502Z" fill="#FEFEFE"/>
<path d="M342.036 303.775C346.504 303.597 385.625 301.923 386.216 307.177C387.58 319.275 386.986 334.696 386.964 346.979L386.919 513.645C386.902 537.869 386.242 562.087 386.357 586.293C386.414 598.661 395.986 607.278 404.422 615.318C422.683 632.738 443.65 649.178 459.942 668.368C444.932 685.738 423.668 706.238 407.195 722.768C389.948 740.068 370.408 760.318 352.431 776.478C339.192 766.478 318.963 746.588 306.649 734.868C281.944 711.058 257.019 687.478 231.876 664.108L231.373 467.746C231.283 414.037 230.584 358.062 232.055 304.448C267.978 304.467 306.298 305.028 342.036 303.775Z" fill="#FEFEFE"/>
<path d="M714.256 304.635C749.101 304.315 783.949 304.339 818.795 304.706C829.626 304.737 858.061 303.74 866.951 304.896C870.216 316.412 868.83 395.481 868.799 413.258L868.317 663.027C859.652 673.187 842.909 688.087 832.603 697.777L772.915 754.017C764.909 761.647 756.852 769.467 748.531 776.737L640.555 668.277C654.388 650.647 676.318 634.787 692.405 618.767C698.842 612.357 711.935 603.377 713.085 594.164C714.472 583.072 713.889 570.849 713.809 559.644L713.521 508.024C713.227 442.137 711.838 370.304 714.256 304.635Z" fill="#FEFEFE"/>
</svg>
